<svg xmlns="http://www.w3.org/2000/svg" xmlns:xlink="http://www.w3.org/1999/xlink" width="48" zoomAndPan="magnify" viewBox="0 0 36 36.000001" height="48" preserveAspectRatio="xMidYMid meet" version="1.0"><defs><g/><clipPath id="de6387f2a0"><path d="M 4.882812 3.503906 L 18.90625 3.503906 L 18.90625 31.542969 L 4.882812 31.542969 Z M 4.882812 3.503906 " clip-rule="nonzero"/></clipPath><clipPath id="875fa3fc61"><path d="M 18.90625 7.152344 L 18.90625 27.875 C 18.90625 28.839844 18.519531 29.769531 17.835938 30.453125 C 17.152344 31.136719 16.222656 31.523438 15.253906 31.523438 L 8.53125 31.523438 C 7.566406 31.523438 6.636719 31.136719 5.953125 30.453125 C 5.269531 29.769531 4.882812 28.839844 4.882812 27.875 L 4.882812 7.152344 C 4.882812 6.183594 5.269531 5.253906 5.953125 4.570312 C 6.636719 3.886719 7.566406 3.503906 8.53125 3.503906 L 15.253906 3.503906 C 16.222656 3.503906 17.152344 3.886719 17.835938 4.570312 C 18.519531 5.253906 18.90625 6.183594 18.90625 7.152344 Z M 18.90625 7.152344 " clip-rule="nonzero"/></clipPath><clipPath id="1cb3521565"><path d="M 0.882812 0.503906 L 14.90625 0.503906 L 14.90625 28.523438 L 0.882812 28.523438 Z M 0.882812 0.503906 " clip-rule="nonzero"/></clipPath><clipPath id="73ca48911c"><path d="M 14.90625 4.152344 L 14.90625 24.875 C 14.90625 25.839844 14.519531 26.769531 13.835938 27.453125 C 13.152344 28.136719 12.222656 28.523438 11.253906 28.523438 L 4.53125 28.523438 C 3.566406 28.523438 2.636719 28.136719 1.953125 27.453125 C 1.269531 26.769531 0.882812 25.839844 0.882812 24.875 L 0.882812 4.152344 C 0.882812 3.183594 1.269531 2.253906 1.953125 1.570312 C 2.636719 0.886719 3.566406 0.503906 4.53125 0.503906 L 11.253906 0.503906 C 12.222656 0.503906 13.152344 0.886719 13.835938 1.570312 C 14.519531 2.253906 14.90625 3.183594 14.90625 4.152344 Z M 14.90625 4.152344 " clip-rule="nonzero"/></clipPath><clipPath id="e65f1bfd5a"><rect x="0" width="15" y="0" height="29"/></clipPath><clipPath id="80467b44b2"><rect x="0" width="16" y="0" height="33"/></clipPath></defs><g clip-path="url(#de6387f2a0)"><g clip-path="url(#875fa3fc61)"><g transform="matrix(1, 0, 0, 1, 4, 3)"><g clip-path="url(#e65f1bfd5a)"><g clip-path="url(#1cb3521565)"><g clip-path="url(#73ca48911c)"><path fill="#004aad" d="M 0.882812 0.503906 L 14.90625 0.503906 L 14.90625 28.542969 L 0.882812 28.542969 Z M 0.882812 0.503906 " fill-opacity="1" fill-rule="nonzero"/></g></g></g></g></g></g><g transform="matrix(1, 0, 0, 1, 4, 1)"><g clip-path="url(#80467b44b2)"><g fill="#ffffff" fill-opacity="1"><g transform="translate(0.718918, 25.117234)"><g><path d="M 7.140625 -15.671875 L 7.140625 -12.625 L 11.953125 -12.625 L 11.953125 -10.953125 L 7.140625 -10.953125 L 7.140625 -4.09375 C 7.140625 -3.601562 7.203125 -3.195312 7.328125 -2.875 C 7.453125 -2.5625 7.625 -2.304688 7.84375 -2.109375 C 8.0625 -1.921875 8.3125 -1.785156 8.59375 -1.703125 C 8.875 -1.628906 9.175781 -1.59375 9.5 -1.59375 C 9.726562 -1.59375 9.96875 -1.609375 10.21875 -1.640625 C 10.46875 -1.671875 10.707031 -1.703125 10.9375 -1.734375 C 11.175781 -1.773438 11.398438 -1.816406 11.609375 -1.859375 C 11.816406 -1.898438 11.988281 -1.9375 12.125 -1.96875 L 12.421875 -0.4375 C 12.242188 -0.332031 12.023438 -0.238281 11.765625 -0.15625 C 11.515625 -0.0703125 11.234375 -0.00390625 10.921875 0.046875 C 10.617188 0.109375 10.296875 0.15625 9.953125 0.1875 C 9.617188 0.21875 9.285156 0.234375 8.953125 0.234375 C 8.398438 0.234375 7.878906 0.15625 7.390625 0 C 6.898438 -0.164062 6.476562 -0.421875 6.125 -0.765625 C 5.769531 -1.109375 5.488281 -1.550781 5.28125 -2.09375 C 5.070312 -2.644531 4.96875 -3.3125 4.96875 -4.09375 L 4.96875 -10.953125 L 1.65625 -10.953125 L 1.65625 -12.625 L 4.96875 -12.625 L 4.96875 -15.671875 Z M 7.140625 -15.671875 "/></g></g></g></g></g><g fill="#004aad" fill-opacity="1"><g transform="translate(19.913404, 26.56)"><g><path d="M 12.703125 -6.1875 C 12.703125 -5.28125 12.59375 -4.4375 12.375 -3.65625 C 12.15625 -2.875 11.832031 -2.191406 11.40625 -1.609375 C 10.988281 -1.035156 10.472656 -0.582031 9.859375 -0.25 C 9.242188 0.0703125 8.535156 0.234375 7.734375 0.234375 C 6.960938 0.234375 6.28125 0.109375 5.6875 -0.140625 C 5.101562 -0.390625 4.601562 -0.75 4.1875 -1.21875 L 4.1875 4.859375 L 2.015625 4.859375 L 2.015625 -12.640625 L 4 -12.640625 L 4.109375 -11.265625 C 4.523438 -11.785156 5.03125 -12.179688 5.625 -12.453125 C 6.21875 -12.734375 6.910156 -12.875 7.703125 -12.875 C 8.515625 -12.875 9.226562 -12.710938 9.84375 -12.390625 C 10.46875 -12.078125 10.988281 -11.632812 11.40625 -11.0625 C 11.832031 -10.5 12.15625 -9.820312 12.375 -9.03125 C 12.59375 -8.238281 12.703125 -7.367188 12.703125 -6.421875 Z M 10.546875 -6.421875 C 10.546875 -7.046875 10.476562 -7.632812 10.34375 -8.1875 C 10.207031 -8.738281 9.992188 -9.226562 9.703125 -9.65625 C 9.421875 -10.082031 9.0625 -10.421875 8.625 -10.671875 C 8.1875 -10.921875 7.664062 -11.046875 7.0625 -11.046875 C 6.363281 -11.046875 5.78125 -10.882812 5.3125 -10.5625 C 4.84375 -10.238281 4.46875 -9.820312 4.1875 -9.3125 L 4.1875 -3.21875 C 4.46875 -2.726562 4.835938 -2.320312 5.296875 -2 C 5.765625 -1.6875 6.359375 -1.53125 7.078125 -1.53125 C 7.679688 -1.53125 8.203125 -1.65625 8.640625 -1.90625 C 9.078125 -2.164062 9.4375 -2.507812 9.71875 -2.9375 C 10 -3.363281 10.207031 -3.859375 10.34375 -4.421875 C 10.476562 -4.984375 10.546875 -5.570312 10.546875 -6.1875 Z M 10.546875 -6.421875 "/></g></g></g></svg>