<svg xmlns="http://www.w3.org/2000/svg" xmlns:xlink="http://www.w3.org/1999/xlink" width="400" zoomAndPan="magnify" viewBox="0 0 300 74.999997" height="100" preserveAspectRatio="xMidYMid meet" version="1.0"><defs><g/><clipPath id="b3f80a648a"><path d="M 7.296875 12.109375 L 157.632812 12.109375 L 157.632812 64.179688 L 7.296875 64.179688 Z M 7.296875 12.109375 " clip-rule="nonzero"/></clipPath><clipPath id="64208f4f0a"><path d="M 157.488281 18.449219 L 157.488281 58.042969 C 157.488281 59.671875 156.839844 61.230469 155.6875 62.382812 C 154.539062 63.535156 152.976562 64.179688 151.347656 64.179688 L 13.636719 64.179688 C 12.007812 64.179688 10.449219 63.535156 9.296875 62.382812 C 8.148438 61.230469 7.5 59.671875 7.5 58.042969 L 7.5 18.449219 C 7.5 16.824219 8.148438 15.261719 9.296875 14.109375 C 10.449219 12.960938 12.007812 12.3125 13.636719 12.3125 L 151.347656 12.3125 C 152.976562 12.3125 154.539062 12.960938 155.6875 14.109375 C 156.839844 15.261719 157.488281 16.824219 157.488281 18.449219 Z M 157.488281 18.449219 " clip-rule="nonzero"/></clipPath><clipPath id="4819ce4adb"><path d="M 0.441406 0.238281 L 150.632812 0.238281 L 150.632812 52.179688 L 0.441406 52.179688 Z M 0.441406 0.238281 " clip-rule="nonzero"/></clipPath><clipPath id="70c3b2b7bc"><path d="M 150.488281 6.449219 L 150.488281 46.042969 C 150.488281 47.671875 149.839844 49.230469 148.6875 50.382812 C 147.539062 51.535156 145.976562 52.179688 144.347656 52.179688 L 6.636719 52.179688 C 5.007812 52.179688 3.449219 51.535156 2.296875 50.382812 C 1.148438 49.230469 0.5 47.671875 0.5 46.042969 L 0.5 6.449219 C 0.5 4.824219 1.148438 3.261719 2.296875 2.109375 C 3.449219 0.960938 5.007812 0.3125 6.636719 0.3125 L 144.347656 0.3125 C 145.976562 0.3125 147.539062 0.960938 148.6875 2.109375 C 149.839844 3.261719 150.488281 4.824219 150.488281 6.449219 Z M 150.488281 6.449219 " clip-rule="nonzero"/></clipPath><clipPath id="909461a328"><rect x="0" width="151" y="0" height="53"/></clipPath></defs><g clip-path="url(#b3f80a648a)"><g clip-path="url(#64208f4f0a)"><g transform="matrix(1, 0, 0, 1, 7, 12)"><g clip-path="url(#909461a328)"><g clip-path="url(#4819ce4adb)"><g clip-path="url(#70c3b2b7bc)"><path fill="#004aad" d="M 0.5 0.3125 L 150.429688 0.3125 L 150.429688 52.179688 L 0.5 52.179688 Z M 0.5 0.3125 " fill-opacity="1" fill-rule="nonzero"/></g></g></g></g></g></g><g fill="#ffffff" fill-opacity="1"><g transform="translate(22.499151, 51.063913)"><g><path d="M 11.953125 -26.234375 L 11.953125 -21.125 L 20 -21.125 L 20 -18.328125 L 11.953125 -18.328125 L 11.953125 -6.859375 C 11.953125 -6.035156 12.054688 -5.351562 12.265625 -4.8125 C 12.472656 -4.28125 12.757812 -3.851562 13.125 -3.53125 C 13.488281 -3.21875 13.90625 -2.992188 14.375 -2.859375 C 14.851562 -2.734375 15.359375 -2.671875 15.890625 -2.671875 C 16.285156 -2.671875 16.691406 -2.691406 17.109375 -2.734375 C 17.523438 -2.785156 17.929688 -2.84375 18.328125 -2.90625 C 18.722656 -2.96875 19.09375 -3.035156 19.4375 -3.109375 C 19.78125 -3.179688 20.0625 -3.242188 20.28125 -3.296875 L 20.796875 -0.734375 C 20.492188 -0.554688 20.128906 -0.398438 19.703125 -0.265625 C 19.273438 -0.128906 18.804688 -0.015625 18.296875 0.078125 C 17.785156 0.179688 17.242188 0.257812 16.671875 0.3125 C 16.109375 0.363281 15.550781 0.390625 15 0.390625 C 14.0625 0.390625 13.179688 0.257812 12.359375 0 C 11.546875 -0.269531 10.84375 -0.691406 10.25 -1.265625 C 9.65625 -1.847656 9.179688 -2.597656 8.828125 -3.515625 C 8.484375 -4.441406 8.3125 -5.554688 8.3125 -6.859375 L 8.3125 -18.328125 L 2.765625 -18.328125 L 2.765625 -21.125 L 8.3125 -21.125 L 8.3125 -26.234375 Z M 11.953125 -26.234375 "/></g></g></g><g fill="#ffffff" fill-opacity="1"><g transform="translate(46.493679, 51.063913)"><g><path d="M 17.234375 -21.515625 C 17.578125 -21.515625 17.929688 -21.503906 18.296875 -21.484375 C 18.660156 -21.460938 19.007812 -21.425781 19.34375 -21.375 C 19.675781 -21.332031 19.976562 -21.28125 20.25 -21.21875 C 20.53125 -21.15625 20.765625 -21.082031 20.953125 -21 L 20.453125 -17.46875 C 19.753906 -17.625 19.085938 -17.738281 18.453125 -17.8125 C 17.828125 -17.882812 17.171875 -17.921875 16.484375 -17.921875 C 14.785156 -17.921875 13.410156 -17.535156 12.359375 -16.765625 C 11.316406 -16.003906 10.546875 -14.929688 10.046875 -13.546875 L 10.046875 0 L 6.421875 0 L 6.421875 -21.125 L 9.859375 -21.125 L 10.03125 -17.765625 C 10.894531 -18.921875 11.925781 -19.832031 13.125 -20.5 C 14.332031 -21.175781 15.703125 -21.515625 17.234375 -21.515625 Z M 17.234375 -21.515625 "/></g></g></g><g fill="#ffffff" fill-opacity="1"><g transform="translate(70.488206, 51.063913)"><g><path d="M 17.109375 -2.90625 C 16.398438 -1.863281 15.519531 -1.050781 14.46875 -0.46875 C 13.414062 0.101562 12.195312 0.390625 10.8125 0.390625 C 9.707031 0.390625 8.707031 0.21875 7.8125 -0.125 C 6.914062 -0.46875 6.144531 -1.003906 5.5 -1.734375 C 4.863281 -2.460938 4.375 -3.390625 4.03125 -4.515625 C 3.6875 -5.640625 3.515625 -6.992188 3.515625 -8.578125 L 3.515625 -21.125 L 7.125 -21.125 L 7.125 -8.53125 C 7.125 -7.382812 7.210938 -6.429688 7.390625 -5.671875 C 7.578125 -4.921875 7.851562 -4.320312 8.21875 -3.875 C 8.582031 -3.425781 9.023438 -3.109375 9.546875 -2.921875 C 10.078125 -2.742188 10.6875 -2.65625 11.375 -2.65625 C 12.851562 -2.65625 14.039062 -2.953125 14.9375 -3.546875 C 15.84375 -4.148438 16.519531 -4.957031 16.96875 -5.96875 L 16.96875 -21.125 L 20.59375 -21.125 L 20.59375 0 L 17.3125 0 Z M 17.109375 -2.90625 "/></g></g></g><g fill="#ffffff" fill-opacity="1"><g transform="translate(94.482734, 51.063913)"><g><path d="M 17.4375 -5.609375 C 17.4375 -6.035156 17.347656 -6.421875 17.171875 -6.765625 C 17.003906 -7.109375 16.71875 -7.421875 16.3125 -7.703125 C 15.914062 -7.992188 15.382812 -8.257812 14.71875 -8.5 C 14.050781 -8.738281 13.222656 -8.957031 12.234375 -9.15625 C 11.023438 -9.40625 9.921875 -9.703125 8.921875 -10.046875 C 7.929688 -10.398438 7.082031 -10.820312 6.375 -11.3125 C 5.664062 -11.800781 5.113281 -12.375 4.71875 -13.03125 C 4.332031 -13.6875 4.140625 -14.453125 4.140625 -15.328125 C 4.140625 -16.179688 4.335938 -16.984375 4.734375 -17.734375 C 5.140625 -18.484375 5.707031 -19.132812 6.4375 -19.6875 C 7.164062 -20.25 8.035156 -20.691406 9.046875 -21.015625 C 10.054688 -21.347656 11.164062 -21.515625 12.375 -21.515625 C 13.675781 -21.515625 14.847656 -21.34375 15.890625 -21 C 16.929688 -20.664062 17.816406 -20.195312 18.546875 -19.59375 C 19.273438 -19 19.835938 -18.300781 20.234375 -17.5 C 20.628906 -16.695312 20.828125 -15.835938 20.828125 -14.921875 L 17.21875 -14.921875 C 17.21875 -15.367188 17.097656 -15.8125 16.859375 -16.25 C 16.628906 -16.6875 16.304688 -17.070312 15.890625 -17.40625 C 15.472656 -17.75 14.96875 -18.023438 14.375 -18.234375 C 13.78125 -18.441406 13.113281 -18.546875 12.375 -18.546875 C 11.601562 -18.546875 10.925781 -18.460938 10.34375 -18.296875 C 9.769531 -18.128906 9.289062 -17.898438 8.90625 -17.609375 C 8.53125 -17.328125 8.242188 -16.992188 8.046875 -16.609375 C 7.847656 -16.234375 7.75 -15.84375 7.75 -15.4375 C 7.75 -15.019531 7.828125 -14.648438 7.984375 -14.328125 C 8.140625 -14.003906 8.410156 -13.710938 8.796875 -13.453125 C 9.179688 -13.191406 9.691406 -12.957031 10.328125 -12.75 C 10.972656 -12.539062 11.789062 -12.335938 12.78125 -12.140625 C 14.082031 -11.867188 15.25 -11.550781 16.28125 -11.1875 C 17.3125 -10.832031 18.175781 -10.40625 18.875 -9.90625 C 19.582031 -9.40625 20.117188 -8.820312 20.484375 -8.15625 C 20.859375 -7.5 21.046875 -6.734375 21.046875 -5.859375 C 21.046875 -4.921875 20.832031 -4.066406 20.40625 -3.296875 C 19.988281 -2.523438 19.398438 -1.863281 18.640625 -1.3125 C 17.890625 -0.769531 16.984375 -0.347656 15.921875 -0.046875 C 14.867188 0.242188 13.71875 0.390625 12.46875 0.390625 C 11.039062 0.390625 9.765625 0.195312 8.640625 -0.1875 C 7.523438 -0.570312 6.578125 -1.078125 5.796875 -1.703125 C 5.023438 -2.335938 4.4375 -3.070312 4.03125 -3.90625 C 3.625 -4.738281 3.421875 -5.601562 3.421875 -6.5 L 7.03125 -6.5 C 7.082031 -5.757812 7.28125 -5.132812 7.625 -4.625 C 7.96875 -4.113281 8.394531 -3.703125 8.90625 -3.390625 C 9.425781 -3.078125 10 -2.851562 10.625 -2.71875 C 11.25 -2.59375 11.863281 -2.53125 12.46875 -2.53125 C 14 -2.53125 15.207031 -2.8125 16.09375 -3.375 C 16.976562 -3.9375 17.425781 -4.679688 17.4375 -5.609375 Z M 17.4375 -5.609375 "/></g></g></g><g fill="#ffffff" fill-opacity="1"><g transform="translate(118.477261, 51.063913)"><g><path d="M 11.953125 -26.234375 L 11.953125 -21.125 L 20 -21.125 L 20 -18.328125 L 11.953125 -18.328125 L 11.953125 -6.859375 C 11.953125 -6.035156 12.054688 -5.351562 12.265625 -4.8125 C 12.472656 -4.28125 12.757812 -3.851562 13.125 -3.53125 C 13.488281 -3.21875 13.90625 -2.992188 14.375 -2.859375 C 14.851562 -2.734375 15.359375 -2.671875 15.890625 -2.671875 C 16.285156 -2.671875 16.691406 -2.691406 17.109375 -2.734375 C 17.523438 -2.785156 17.929688 -2.84375 18.328125 -2.90625 C 18.722656 -2.96875 19.09375 -3.035156 19.4375 -3.109375 C 19.78125 -3.179688 20.0625 -3.242188 20.28125 -3.296875 L 20.796875 -0.734375 C 20.492188 -0.554688 20.128906 -0.398438 19.703125 -0.265625 C 19.273438 -0.128906 18.804688 -0.015625 18.296875 0.078125 C 17.785156 0.179688 17.242188 0.257812 16.671875 0.3125 C 16.109375 0.363281 15.550781 0.390625 15 0.390625 C 14.0625 0.390625 13.179688 0.257812 12.359375 0 C 11.546875 -0.269531 10.84375 -0.691406 10.25 -1.265625 C 9.65625 -1.847656 9.179688 -2.597656 8.828125 -3.515625 C 8.484375 -4.441406 8.3125 -5.554688 8.3125 -6.859375 L 8.3125 -18.328125 L 2.765625 -18.328125 L 2.765625 -21.125 L 8.3125 -21.125 L 8.3125 -26.234375 Z M 11.953125 -26.234375 "/></g></g></g><g fill="#ffffff" fill-opacity="1"><g transform="translate(169.083098, 52.499995)"><g><path d="M 21.234375 -10.328125 C 21.234375 -8.816406 21.050781 -7.40625 20.6875 -6.09375 C 20.320312 -4.789062 19.785156 -3.65625 19.078125 -2.6875 C 18.378906 -1.726562 17.507812 -0.972656 16.46875 -0.421875 C 15.4375 0.117188 14.257812 0.390625 12.9375 0.390625 C 11.644531 0.390625 10.503906 0.179688 9.515625 -0.234375 C 8.535156 -0.648438 7.695312 -1.25 7 -2.03125 L 7 8.125 L 3.375 8.125 L 3.375 -21.140625 L 6.6875 -21.140625 L 6.859375 -18.828125 C 7.554688 -19.703125 8.40625 -20.367188 9.40625 -20.828125 C 10.40625 -21.296875 11.5625 -21.53125 12.875 -21.53125 C 14.226562 -21.53125 15.425781 -21.257812 16.46875 -20.71875 C 17.507812 -20.1875 18.378906 -19.445312 19.078125 -18.5 C 19.785156 -17.550781 20.320312 -16.414062 20.6875 -15.09375 C 21.050781 -13.769531 21.234375 -12.320312 21.234375 -10.75 Z M 17.625 -10.75 C 17.625 -11.769531 17.507812 -12.742188 17.28125 -13.671875 C 17.050781 -14.609375 16.695312 -15.429688 16.21875 -16.140625 C 15.75 -16.847656 15.148438 -17.410156 14.421875 -17.828125 C 13.691406 -18.242188 12.816406 -18.453125 11.796875 -18.453125 C 10.640625 -18.453125 9.664062 -18.179688 8.875 -17.640625 C 8.09375 -17.109375 7.46875 -16.414062 7 -15.5625 L 7 -5.390625 C 7.46875 -4.554688 8.09375 -3.875 8.875 -3.34375 C 9.65625 -2.820312 10.644531 -2.5625 11.84375 -2.5625 C 12.84375 -2.5625 13.707031 -2.769531 14.4375 -3.1875 C 15.164062 -3.613281 15.765625 -4.1875 16.234375 -4.90625 C 16.703125 -5.625 17.050781 -6.453125 17.28125 -7.390625 C 17.507812 -8.328125 17.625 -9.304688 17.625 -10.328125 Z M 17.625 -10.75 "/></g></g></g><g fill="#ffffff" fill-opacity="1"><g transform="translate(193.084663, 52.499995)"><g><path d="M 2.390625 -10.765625 C 2.390625 -12.285156 2.609375 -13.695312 3.046875 -15 C 3.492188 -16.3125 4.128906 -17.445312 4.953125 -18.40625 C 5.773438 -19.375 6.78125 -20.132812 7.96875 -20.6875 C 9.15625 -21.25 10.488281 -21.53125 11.96875 -21.53125 C 13.46875 -21.53125 14.8125 -21.25 16 -20.6875 C 17.195312 -20.132812 18.207031 -19.375 19.03125 -18.40625 C 19.863281 -17.445312 20.5 -16.3125 20.9375 -15 C 21.382812 -13.695312 21.609375 -12.285156 21.609375 -10.765625 L 21.609375 -10.328125 C 21.609375 -8.804688 21.382812 -7.394531 20.9375 -6.09375 C 20.5 -4.789062 19.863281 -3.65625 19.03125 -2.6875 C 18.207031 -1.726562 17.203125 -0.972656 16.015625 -0.421875 C 14.828125 0.117188 13.492188 0.390625 12.015625 0.390625 C 10.515625 0.390625 9.164062 0.117188 7.96875 -0.421875 C 6.78125 -0.972656 5.773438 -1.726562 4.953125 -2.6875 C 4.128906 -3.65625 3.492188 -4.789062 3.046875 -6.09375 C 2.609375 -7.394531 2.390625 -8.804688 2.390625 -10.328125 Z M 6 -10.328125 C 6 -9.285156 6.117188 -8.289062 6.359375 -7.34375 C 6.609375 -6.40625 6.984375 -5.578125 7.484375 -4.859375 C 7.992188 -4.148438 8.625 -3.585938 9.375 -3.171875 C 10.132812 -2.753906 11.015625 -2.546875 12.015625 -2.546875 C 13.003906 -2.546875 13.875 -2.753906 14.625 -3.171875 C 15.375 -3.585938 16 -4.148438 16.5 -4.859375 C 17 -5.578125 17.367188 -6.40625 17.609375 -7.34375 C 17.859375 -8.289062 17.984375 -9.285156 17.984375 -10.328125 L 17.984375 -10.765625 C 17.984375 -11.796875 17.859375 -12.78125 17.609375 -13.71875 C 17.359375 -14.664062 16.976562 -15.492188 16.46875 -16.203125 C 15.96875 -16.921875 15.34375 -17.492188 14.59375 -17.921875 C 13.851562 -18.347656 12.976562 -18.5625 11.96875 -18.5625 C 10.96875 -18.5625 10.097656 -18.347656 9.359375 -17.921875 C 8.617188 -17.492188 7.992188 -16.921875 7.484375 -16.203125 C 6.984375 -15.492188 6.609375 -14.664062 6.359375 -13.71875 C 6.117188 -12.78125 6 -11.796875 6 -10.765625 Z M 6 -10.328125 "/></g></g></g><g fill="#ffffff" fill-opacity="1"><g transform="translate(217.086229, 52.499995)"><g><path d="M 3.96875 -21.140625 L 14.765625 -21.140625 L 14.765625 -3.125 L 21.65625 -3.125 L 21.65625 0 L 3.96875 0 L 3.96875 -3.125 L 11.15625 -3.125 L 11.15625 -17.984375 L 3.96875 -17.984375 Z M 10.6875 -26.6875 C 10.6875 -27.28125 10.863281 -27.78125 11.21875 -28.1875 C 11.582031 -28.601562 12.128906 -28.8125 12.859375 -28.8125 C 13.566406 -28.8125 14.101562 -28.601562 14.46875 -28.1875 C 14.832031 -27.78125 15.015625 -27.28125 15.015625 -26.6875 C 15.015625 -26.09375 14.832031 -25.597656 14.46875 -25.203125 C 14.101562 -24.816406 13.566406 -24.625 12.859375 -24.625 C 12.128906 -24.625 11.582031 -24.816406 11.21875 -25.203125 C 10.863281 -25.597656 10.6875 -26.09375 10.6875 -26.6875 Z M 10.6875 -26.6875 "/></g></g></g><g fill="#ffffff" fill-opacity="1"><g transform="translate(241.087794, 52.499995)"><g><path d="M 6.640625 -21.140625 L 6.890625 -18.015625 C 7.660156 -19.109375 8.601562 -19.960938 9.71875 -20.578125 C 10.84375 -21.191406 12.097656 -21.507812 13.484375 -21.53125 C 14.585938 -21.53125 15.59375 -21.375 16.5 -21.0625 C 17.40625 -20.75 18.175781 -20.257812 18.8125 -19.59375 C 19.445312 -18.925781 19.9375 -18.082031 20.28125 -17.0625 C 20.625 -16.039062 20.796875 -14.828125 20.796875 -13.421875 L 20.796875 0 L 17.1875 0 L 17.1875 -13.34375 C 17.1875 -14.28125 17.082031 -15.070312 16.875 -15.71875 C 16.664062 -16.375 16.351562 -16.898438 15.9375 -17.296875 C 15.53125 -17.703125 15.03125 -17.992188 14.4375 -18.171875 C 13.851562 -18.359375 13.175781 -18.453125 12.40625 -18.453125 C 11.195312 -18.453125 10.128906 -18.148438 9.203125 -17.546875 C 8.285156 -16.941406 7.554688 -16.144531 7.015625 -15.15625 L 7.015625 0 L 3.40625 0 L 3.40625 -21.140625 Z M 6.640625 -21.140625 "/></g></g></g><g fill="#ffffff" fill-opacity="1"><g transform="translate(265.08936, 52.499995)"><g><path d="M 11.953125 -26.25 L 11.953125 -21.140625 L 20 -21.140625 L 20 -18.34375 L 11.953125 -18.34375 L 11.953125 -6.859375 C 11.953125 -6.035156 12.054688 -5.359375 12.265625 -4.828125 C 12.472656 -4.296875 12.757812 -3.867188 13.125 -3.546875 C 13.488281 -3.222656 13.90625 -2.992188 14.375 -2.859375 C 14.851562 -2.734375 15.363281 -2.671875 15.90625 -2.671875 C 16.289062 -2.671875 16.691406 -2.691406 17.109375 -2.734375 C 17.523438 -2.785156 17.929688 -2.84375 18.328125 -2.90625 C 18.722656 -2.976562 19.09375 -3.046875 19.4375 -3.109375 C 19.789062 -3.179688 20.078125 -3.242188 20.296875 -3.296875 L 20.796875 -0.75 C 20.503906 -0.5625 20.140625 -0.398438 19.703125 -0.265625 C 19.273438 -0.128906 18.804688 -0.015625 18.296875 0.078125 C 17.796875 0.179688 17.257812 0.257812 16.6875 0.3125 C 16.125 0.363281 15.5625 0.390625 15 0.390625 C 14.0625 0.390625 13.1875 0.257812 12.375 0 C 11.5625 -0.269531 10.851562 -0.695312 10.25 -1.28125 C 9.65625 -1.863281 9.1875 -2.613281 8.84375 -3.53125 C 8.5 -4.445312 8.328125 -5.554688 8.328125 -6.859375 L 8.328125 -18.34375 L 2.78125 -18.34375 L 2.78125 -21.140625 L 8.328125 -21.140625 L 8.328125 -26.25 Z M 11.953125 -26.25 "/></g></g></g></svg>