<svg xmlns="http://www.w3.org/2000/svg" xmlns:xlink="http://www.w3.org/1999/xlink" width="300" zoomAndPan="magnify" viewBox="0 0 224.87999 225" height="300" preserveAspectRatio="xMidYMid meet" version="1.0"><defs><g/><clipPath id="dcc820da50"><path d="M 8.125 40.347656 L 216.957031 40.347656 L 216.957031 112.496094 L 8.125 112.496094 Z M 8.125 40.347656 " clip-rule="nonzero"/></clipPath><clipPath id="239c75decd"><path d="M 216.753906 53.144531 L 216.753906 99.699219 C 216.753906 103.09375 215.40625 106.347656 213.007812 108.75 C 210.605469 111.148438 207.351562 112.496094 203.960938 112.496094 L 20.921875 112.496094 C 17.527344 112.496094 14.273438 111.148438 11.871094 108.75 C 9.472656 106.347656 8.125 103.09375 8.125 99.699219 L 8.125 53.144531 C 8.125 49.75 9.472656 46.496094 11.871094 44.097656 C 14.273438 41.695312 17.527344 40.347656 20.921875 40.347656 L 203.960938 40.347656 C 207.351562 40.347656 210.605469 41.695312 213.007812 44.097656 C 215.40625 46.496094 216.753906 49.75 216.753906 53.144531 Z M 216.753906 53.144531 " clip-rule="nonzero"/></clipPath><clipPath id="7641222cbf"><path d="M 0.125 0.347656 L 208.84375 0.347656 L 208.84375 72.496094 L 0.125 72.496094 Z M 0.125 0.347656 " clip-rule="nonzero"/></clipPath><clipPath id="c0cb4cc04c"><path d="M 208.753906 13.144531 L 208.753906 59.699219 C 208.753906 63.09375 207.40625 66.347656 205.007812 68.75 C 202.605469 71.148438 199.351562 72.496094 195.960938 72.496094 L 12.921875 72.496094 C 9.527344 72.496094 6.273438 71.148438 3.871094 68.75 C 1.472656 66.347656 0.125 63.09375 0.125 59.699219 L 0.125 13.144531 C 0.125 9.75 1.472656 6.496094 3.871094 4.097656 C 6.273438 1.695312 9.527344 0.347656 12.921875 0.347656 L 195.960938 0.347656 C 199.351562 0.347656 202.605469 1.695312 205.007812 4.097656 C 207.40625 6.496094 208.753906 9.75 208.753906 13.144531 Z M 208.753906 13.144531 " clip-rule="nonzero"/></clipPath><clipPath id="637114e474"><rect x="0" width="209" y="0" height="73"/></clipPath><clipPath id="afe8988e85"><rect x="0" width="169" y="0" height="153"/></clipPath></defs><g clip-path="url(#dcc820da50)"><g clip-path="url(#239c75decd)"><g transform="matrix(1, 0, 0, 1, 8, 40)"><g clip-path="url(#637114e474)"><g clip-path="url(#7641222cbf)"><g clip-path="url(#c0cb4cc04c)"><path fill="#004aad" d="M 0.125 0.347656 L 208.675781 0.347656 L 208.675781 72.496094 L 0.125 72.496094 Z M 0.125 0.347656 " fill-opacity="1" fill-rule="nonzero"/></g></g></g></g></g></g><g transform="matrix(1, 0, 0, 1, 28, 36)"><g clip-path="url(#afe8988e85)"><g fill="#ffffff" fill-opacity="1"><g transform="translate(0.980068, 59.288069)"><g><path d="M 16.625 -36.5 L 16.625 -29.390625 L 27.8125 -29.390625 L 27.8125 -25.5 L 16.625 -25.5 L 16.625 -9.53125 C 16.625 -8.394531 16.765625 -7.453125 17.046875 -6.703125 C 17.335938 -5.960938 17.738281 -5.367188 18.25 -4.921875 C 18.757812 -4.484375 19.34375 -4.171875 20 -3.984375 C 20.664062 -3.804688 21.367188 -3.71875 22.109375 -3.71875 C 22.648438 -3.71875 23.207031 -3.75 23.78125 -3.8125 C 24.363281 -3.875 24.929688 -3.953125 25.484375 -4.046875 C 26.035156 -4.140625 26.550781 -4.234375 27.03125 -4.328125 C 27.519531 -4.429688 27.914062 -4.519531 28.21875 -4.59375 L 28.921875 -1.03125 C 28.503906 -0.78125 28 -0.554688 27.40625 -0.359375 C 26.8125 -0.171875 26.160156 -0.0078125 25.453125 0.125 C 24.742188 0.257812 23.992188 0.363281 23.203125 0.4375 C 22.421875 0.507812 21.640625 0.546875 20.859375 0.546875 C 19.554688 0.546875 18.335938 0.359375 17.203125 -0.015625 C 16.078125 -0.390625 15.097656 -0.976562 14.265625 -1.78125 C 13.429688 -2.582031 12.773438 -3.617188 12.296875 -4.890625 C 11.816406 -6.171875 11.578125 -7.71875 11.578125 -9.53125 L 11.578125 -25.5 L 3.859375 -25.5 L 3.859375 -29.390625 L 11.578125 -29.390625 L 11.578125 -36.5 Z M 16.625 -36.5 "/></g></g></g><g fill="#ffffff" fill-opacity="1"><g transform="translate(34.362947, 59.288069)"><g><path d="M 23.984375 -29.9375 C 24.453125 -29.9375 24.9375 -29.921875 25.4375 -29.890625 C 25.945312 -29.859375 26.429688 -29.8125 26.890625 -29.75 C 27.359375 -29.6875 27.785156 -29.609375 28.171875 -29.515625 C 28.566406 -29.429688 28.890625 -29.332031 29.140625 -29.21875 L 28.46875 -24.3125 C 27.488281 -24.53125 26.554688 -24.6875 25.671875 -24.78125 C 24.796875 -24.882812 23.878906 -24.9375 22.921875 -24.9375 C 20.566406 -24.9375 18.660156 -24.398438 17.203125 -23.328125 C 15.742188 -22.265625 14.671875 -20.769531 13.984375 -18.84375 L 13.984375 0 L 8.9375 0 L 8.9375 -29.390625 L 13.71875 -29.390625 L 13.953125 -24.71875 C 15.148438 -26.332031 16.585938 -27.601562 18.265625 -28.53125 C 19.941406 -29.46875 21.847656 -29.9375 23.984375 -29.9375 Z M 23.984375 -29.9375 "/></g></g></g><g fill="#ffffff" fill-opacity="1"><g transform="translate(67.745826, 59.288069)"><g><path d="M 23.796875 -4.046875 C 22.816406 -2.597656 21.59375 -1.46875 20.125 -0.65625 C 18.65625 0.144531 16.960938 0.546875 15.046875 0.546875 C 13.503906 0.546875 12.109375 0.304688 10.859375 -0.171875 C 9.609375 -0.648438 8.539062 -1.394531 7.65625 -2.40625 C 6.769531 -3.425781 6.085938 -4.71875 5.609375 -6.28125 C 5.128906 -7.851562 4.890625 -9.734375 4.890625 -11.921875 L 4.890625 -29.390625 L 9.90625 -29.390625 L 9.90625 -11.875 C 9.90625 -10.28125 10.03125 -8.957031 10.28125 -7.90625 C 10.539062 -6.851562 10.921875 -6.015625 11.421875 -5.390625 C 11.929688 -4.765625 12.550781 -4.320312 13.28125 -4.0625 C 14.019531 -3.8125 14.867188 -3.6875 15.828125 -3.6875 C 17.878906 -3.6875 19.53125 -4.101562 20.78125 -4.9375 C 22.039062 -5.769531 22.984375 -6.894531 23.609375 -8.3125 L 23.609375 -29.390625 L 28.65625 -29.390625 L 28.65625 0 L 24.09375 0 Z M 23.796875 -4.046875 "/></g></g></g><g fill="#ffffff" fill-opacity="1"><g transform="translate(101.128705, 59.288069)"><g><path d="M 24.25 -7.796875 C 24.25 -8.390625 24.128906 -8.925781 23.890625 -9.40625 C 23.660156 -9.882812 23.265625 -10.320312 22.703125 -10.71875 C 22.140625 -11.125 21.394531 -11.492188 20.46875 -11.828125 C 19.550781 -12.160156 18.40625 -12.460938 17.03125 -12.734375 C 15.34375 -13.078125 13.804688 -13.492188 12.421875 -13.984375 C 11.035156 -14.472656 9.847656 -15.054688 8.859375 -15.734375 C 7.878906 -16.421875 7.117188 -17.21875 6.578125 -18.125 C 6.035156 -19.039062 5.765625 -20.109375 5.765625 -21.328125 C 5.765625 -22.515625 6.039062 -23.628906 6.59375 -24.671875 C 7.15625 -25.710938 7.941406 -26.625 8.953125 -27.40625 C 9.972656 -28.1875 11.179688 -28.800781 12.578125 -29.25 C 13.984375 -29.707031 15.53125 -29.9375 17.21875 -29.9375 C 19.03125 -29.9375 20.660156 -29.695312 22.109375 -29.21875 C 23.554688 -28.75 24.785156 -28.097656 25.796875 -27.265625 C 26.816406 -26.429688 27.601562 -25.457031 28.15625 -24.34375 C 28.707031 -23.226562 28.984375 -22.03125 28.984375 -20.75 L 23.953125 -20.75 C 23.953125 -21.382812 23.789062 -22.003906 23.46875 -22.609375 C 23.144531 -23.210938 22.691406 -23.75 22.109375 -24.21875 C 21.523438 -24.695312 20.820312 -25.078125 20 -25.359375 C 19.175781 -25.648438 18.25 -25.796875 17.21875 -25.796875 C 16.15625 -25.796875 15.21875 -25.675781 14.40625 -25.4375 C 13.601562 -25.207031 12.929688 -24.894531 12.390625 -24.5 C 11.859375 -24.101562 11.457031 -23.640625 11.1875 -23.109375 C 10.914062 -22.585938 10.78125 -22.046875 10.78125 -21.484375 C 10.78125 -20.898438 10.890625 -20.378906 11.109375 -19.921875 C 11.328125 -19.472656 11.703125 -19.066406 12.234375 -18.703125 C 12.765625 -18.347656 13.476562 -18.023438 14.375 -17.734375 C 15.269531 -17.441406 16.410156 -17.160156 17.796875 -16.890625 C 19.597656 -16.515625 21.210938 -16.078125 22.640625 -15.578125 C 24.078125 -15.078125 25.285156 -14.476562 26.265625 -13.78125 C 27.242188 -13.082031 27.988281 -12.269531 28.5 -11.34375 C 29.019531 -10.425781 29.28125 -9.359375 29.28125 -8.140625 C 29.28125 -6.835938 28.984375 -5.648438 28.390625 -4.578125 C 27.804688 -3.515625 26.988281 -2.601562 25.9375 -1.84375 C 24.882812 -1.082031 23.625 -0.492188 22.15625 -0.078125 C 20.695312 0.335938 19.097656 0.546875 17.359375 0.546875 C 15.367188 0.546875 13.59375 0.28125 12.03125 -0.25 C 10.476562 -0.789062 9.160156 -1.5 8.078125 -2.375 C 7.003906 -3.25 6.179688 -4.265625 5.609375 -5.421875 C 5.035156 -6.585938 4.75 -7.796875 4.75 -9.046875 L 9.78125 -9.046875 C 9.851562 -8.015625 10.128906 -7.144531 10.609375 -6.4375 C 11.085938 -5.726562 11.679688 -5.15625 12.390625 -4.71875 C 13.109375 -4.289062 13.898438 -3.984375 14.765625 -3.796875 C 15.640625 -3.617188 16.503906 -3.53125 17.359375 -3.53125 C 19.472656 -3.53125 21.144531 -3.914062 22.375 -4.6875 C 23.613281 -5.46875 24.238281 -6.503906 24.25 -7.796875 Z M 24.25 -7.796875 "/></g></g></g><g fill="#ffffff" fill-opacity="1"><g transform="translate(134.511583, 59.288069)"><g><path d="M 16.625 -36.5 L 16.625 -29.390625 L 27.8125 -29.390625 L 27.8125 -25.5 L 16.625 -25.5 L 16.625 -9.53125 C 16.625 -8.394531 16.765625 -7.453125 17.046875 -6.703125 C 17.335938 -5.960938 17.738281 -5.367188 18.25 -4.921875 C 18.757812 -4.484375 19.34375 -4.171875 20 -3.984375 C 20.664062 -3.804688 21.367188 -3.71875 22.109375 -3.71875 C 22.648438 -3.71875 23.207031 -3.75 23.78125 -3.8125 C 24.363281 -3.875 24.929688 -3.953125 25.484375 -4.046875 C 26.035156 -4.140625 26.550781 -4.234375 27.03125 -4.328125 C 27.519531 -4.429688 27.914062 -4.519531 28.21875 -4.59375 L 28.921875 -1.03125 C 28.503906 -0.78125 28 -0.554688 27.40625 -0.359375 C 26.8125 -0.171875 26.160156 -0.0078125 25.453125 0.125 C 24.742188 0.257812 23.992188 0.363281 23.203125 0.4375 C 22.421875 0.507812 21.640625 0.546875 20.859375 0.546875 C 19.554688 0.546875 18.335938 0.359375 17.203125 -0.015625 C 16.078125 -0.390625 15.097656 -0.976562 14.265625 -1.78125 C 13.429688 -2.582031 12.773438 -3.617188 12.296875 -4.890625 C 11.816406 -6.171875 11.578125 -7.71875 11.578125 -9.53125 L 11.578125 -25.5 L 3.859375 -25.5 L 3.859375 -29.390625 L 11.578125 -29.390625 L 11.578125 -36.5 Z M 16.625 -36.5 "/></g></g></g><g fill="#004aad" fill-opacity="1"><g transform="translate(0.980068, 137.002525)"><g><path d="M 29.53125 -14.375 C 29.53125 -12.269531 29.273438 -10.304688 28.765625 -8.484375 C 28.253906 -6.671875 27.507812 -5.09375 26.53125 -3.75 C 25.550781 -2.40625 24.34375 -1.351562 22.90625 -0.59375 C 21.46875 0.164062 19.828125 0.546875 17.984375 0.546875 C 16.191406 0.546875 14.609375 0.257812 13.234375 -0.3125 C 11.867188 -0.894531 10.695312 -1.734375 9.71875 -2.828125 L 9.71875 11.296875 L 4.703125 11.296875 L 4.703125 -29.390625 L 9.28125 -29.390625 L 9.53125 -26.1875 C 10.507812 -27.394531 11.691406 -28.320312 13.078125 -28.96875 C 14.460938 -29.613281 16.070312 -29.9375 17.90625 -29.9375 C 19.78125 -29.9375 21.441406 -29.5625 22.890625 -28.8125 C 24.335938 -28.070312 25.550781 -27.039062 26.53125 -25.71875 C 27.507812 -24.394531 28.253906 -22.8125 28.765625 -20.96875 C 29.273438 -19.132812 29.53125 -17.125 29.53125 -14.9375 Z M 24.5 -14.9375 C 24.5 -16.363281 24.335938 -17.722656 24.015625 -19.015625 C 23.703125 -20.316406 23.210938 -21.457031 22.546875 -22.4375 C 21.890625 -23.425781 21.054688 -24.210938 20.046875 -24.796875 C 19.035156 -25.378906 17.820312 -25.671875 16.40625 -25.671875 C 14.789062 -25.671875 13.4375 -25.289062 12.34375 -24.53125 C 11.25 -23.78125 10.375 -22.816406 9.71875 -21.640625 L 9.71875 -7.5 C 10.375 -6.34375 11.242188 -5.394531 12.328125 -4.65625 C 13.410156 -3.925781 14.785156 -3.5625 16.453125 -3.5625 C 17.847656 -3.5625 19.050781 -3.851562 20.0625 -4.4375 C 21.082031 -5.03125 21.914062 -5.820312 22.5625 -6.8125 C 23.21875 -7.8125 23.703125 -8.960938 24.015625 -10.265625 C 24.335938 -11.566406 24.5 -12.9375 24.5 -14.375 Z M 24.5 -14.9375 "/></g></g></g><g fill="#004aad" fill-opacity="1"><g transform="translate(34.362947, 137.002525)"><g><path d="M 3.3125 -14.96875 C 3.3125 -17.082031 3.617188 -19.050781 4.234375 -20.875 C 4.847656 -22.695312 5.726562 -24.273438 6.875 -25.609375 C 8.03125 -26.953125 9.429688 -28.007812 11.078125 -28.78125 C 12.722656 -29.550781 14.582031 -29.9375 16.65625 -29.9375 C 18.726562 -29.9375 20.59375 -29.550781 22.25 -28.78125 C 23.914062 -28.007812 25.320312 -26.953125 26.46875 -25.609375 C 27.613281 -24.273438 28.492188 -22.695312 29.109375 -20.875 C 29.734375 -19.050781 30.046875 -17.082031 30.046875 -14.96875 L 30.046875 -14.375 C 30.046875 -12.25 29.734375 -10.28125 29.109375 -8.46875 C 28.492188 -6.664062 27.613281 -5.09375 26.46875 -3.75 C 25.320312 -2.40625 23.921875 -1.351562 22.265625 -0.59375 C 20.617188 0.164062 18.765625 0.546875 16.703125 0.546875 C 14.617188 0.546875 12.75 0.164062 11.09375 -0.59375 C 9.4375 -1.351562 8.03125 -2.40625 6.875 -3.75 C 5.726562 -5.09375 4.847656 -6.664062 4.234375 -8.46875 C 3.617188 -10.28125 3.3125 -12.25 3.3125 -14.375 Z M 8.34375 -14.375 C 8.34375 -12.914062 8.515625 -11.53125 8.859375 -10.21875 C 9.203125 -8.90625 9.722656 -7.75 10.421875 -6.75 C 11.117188 -5.757812 11.988281 -4.972656 13.03125 -4.390625 C 14.082031 -3.816406 15.304688 -3.53125 16.703125 -3.53125 C 18.078125 -3.53125 19.285156 -3.816406 20.328125 -4.390625 C 21.367188 -4.972656 22.238281 -5.757812 22.9375 -6.75 C 23.632812 -7.75 24.15625 -8.90625 24.5 -10.21875 C 24.84375 -11.53125 25.015625 -12.914062 25.015625 -14.375 L 25.015625 -14.96875 C 25.015625 -16.394531 24.835938 -17.765625 24.484375 -19.078125 C 24.128906 -20.390625 23.601562 -21.539062 22.90625 -22.53125 C 22.207031 -23.53125 21.335938 -24.320312 20.296875 -24.90625 C 19.253906 -25.5 18.039062 -25.796875 16.65625 -25.796875 C 15.257812 -25.796875 14.046875 -25.5 13.015625 -24.90625 C 11.984375 -24.320312 11.117188 -23.53125 10.421875 -22.53125 C 9.722656 -21.539062 9.203125 -20.390625 8.859375 -19.078125 C 8.515625 -17.765625 8.34375 -16.394531 8.34375 -14.96875 Z M 8.34375 -14.375 "/></g></g></g><g fill="#004aad" fill-opacity="1"><g transform="translate(67.745826, 137.002525)"><g><path d="M 5.515625 -29.390625 L 20.53125 -29.390625 L 20.53125 -4.34375 L 30.125 -4.34375 L 30.125 0 L 5.515625 0 L 5.515625 -4.34375 L 15.515625 -4.34375 L 15.515625 -25.015625 L 5.515625 -25.015625 Z M 14.859375 -37.09375 C 14.859375 -37.925781 15.101562 -38.628906 15.59375 -39.203125 C 16.09375 -39.773438 16.851562 -40.0625 17.875 -40.0625 C 18.863281 -40.0625 19.613281 -39.773438 20.125 -39.203125 C 20.632812 -38.628906 20.890625 -37.925781 20.890625 -37.09375 C 20.890625 -36.28125 20.632812 -35.601562 20.125 -35.0625 C 19.613281 -34.519531 18.863281 -34.25 17.875 -34.25 C 16.851562 -34.25 16.09375 -34.519531 15.59375 -35.0625 C 15.101562 -35.601562 14.859375 -36.28125 14.859375 -37.09375 Z M 14.859375 -37.09375 "/></g></g></g><g fill="#004aad" fill-opacity="1"><g transform="translate(101.128705, 137.002525)"><g><path d="M 9.234375 -29.390625 L 9.59375 -25.046875 C 10.65625 -26.566406 11.960938 -27.753906 13.515625 -28.609375 C 15.078125 -29.472656 16.816406 -29.914062 18.734375 -29.9375 C 20.273438 -29.9375 21.675781 -29.71875 22.9375 -29.28125 C 24.195312 -28.84375 25.269531 -28.160156 26.15625 -27.234375 C 27.039062 -26.316406 27.722656 -25.144531 28.203125 -23.71875 C 28.679688 -22.300781 28.921875 -20.613281 28.921875 -18.65625 L 28.921875 0 L 23.90625 0 L 23.90625 -18.546875 C 23.90625 -19.847656 23.757812 -20.953125 23.46875 -21.859375 C 23.175781 -22.765625 22.742188 -23.5 22.171875 -24.0625 C 21.609375 -24.625 20.910156 -25.03125 20.078125 -25.28125 C 19.253906 -25.539062 18.3125 -25.671875 17.25 -25.671875 C 15.5625 -25.671875 14.078125 -25.25 12.796875 -24.40625 C 11.523438 -23.5625 10.507812 -22.453125 9.75 -21.078125 L 9.75 0 L 4.71875 0 L 4.71875 -29.390625 Z M 9.234375 -29.390625 "/></g></g></g><g fill="#004aad" fill-opacity="1"><g transform="translate(134.511583, 137.002525)"><g><path d="M 16.625 -36.5 L 16.625 -29.390625 L 27.8125 -29.390625 L 27.8125 -25.5 L 16.625 -25.5 L 16.625 -9.53125 C 16.625 -8.394531 16.765625 -7.453125 17.046875 -6.703125 C 17.335938 -5.960938 17.738281 -5.367188 18.25 -4.921875 C 18.757812 -4.484375 19.34375 -4.171875 20 -3.984375 C 20.664062 -3.804688 21.367188 -3.71875 22.109375 -3.71875 C 22.648438 -3.71875 23.207031 -3.75 23.78125 -3.8125 C 24.363281 -3.875 24.929688 -3.953125 25.484375 -4.046875 C 26.035156 -4.140625 26.550781 -4.234375 27.03125 -4.328125 C 27.519531 -4.429688 27.914062 -4.519531 28.21875 -4.59375 L 28.921875 -1.03125 C 28.503906 -0.78125 28 -0.554688 27.40625 -0.359375 C 26.8125 -0.171875 26.160156 -0.0078125 25.453125 0.125 C 24.742188 0.257812 23.992188 0.363281 23.203125 0.4375 C 22.421875 0.507812 21.640625 0.546875 20.859375 0.546875 C 19.554688 0.546875 18.335938 0.359375 17.203125 -0.015625 C 16.078125 -0.390625 15.097656 -0.976562 14.265625 -1.78125 C 13.429688 -2.582031 12.773438 -3.617188 12.296875 -4.890625 C 11.816406 -6.171875 11.578125 -7.71875 11.578125 -9.53125 L 11.578125 -25.5 L 3.859375 -25.5 L 3.859375 -29.390625 L 11.578125 -29.390625 L 11.578125 -36.5 Z M 16.625 -36.5 "/></g></g></g></g></g></svg>