<svg xmlns="http://www.w3.org/2000/svg" xmlns:xlink="http://www.w3.org/1999/xlink" width="300" zoomAndPan="magnify" viewBox="0 0 224.87999 225" height="300" preserveAspectRatio="xMidYMid meet" version="1.0"><defs><g/><clipPath id="ad6bc0c176"><path d="M 8.125 40.347656 L 216.957031 40.347656 L 216.957031 112.496094 L 8.125 112.496094 Z M 8.125 40.347656 " clip-rule="nonzero"/></clipPath><clipPath id="1c20a99064"><path d="M 216.753906 53.144531 L 216.753906 99.699219 C 216.753906 103.09375 215.40625 106.347656 213.007812 108.75 C 210.605469 111.148438 207.351562 112.496094 203.960938 112.496094 L 20.921875 112.496094 C 17.527344 112.496094 14.273438 111.148438 11.871094 108.75 C 9.472656 106.347656 8.125 103.09375 8.125 99.699219 L 8.125 53.144531 C 8.125 49.75 9.472656 46.496094 11.871094 44.097656 C 14.273438 41.695312 17.527344 40.347656 20.921875 40.347656 L 203.960938 40.347656 C 207.351562 40.347656 210.605469 41.695312 213.007812 44.097656 C 215.40625 46.496094 216.753906 49.75 216.753906 53.144531 Z M 216.753906 53.144531 " clip-rule="nonzero"/></clipPath><clipPath id="7bc755a89e"><path d="M 0.125 0.347656 L 208.84375 0.347656 L 208.84375 72.496094 L 0.125 72.496094 Z M 0.125 0.347656 " clip-rule="nonzero"/></clipPath><clipPath id="60a44086b7"><path d="M 208.753906 13.144531 L 208.753906 59.699219 C 208.753906 63.09375 207.40625 66.347656 205.007812 68.75 C 202.605469 71.148438 199.351562 72.496094 195.960938 72.496094 L 12.921875 72.496094 C 9.527344 72.496094 6.273438 71.148438 3.871094 68.75 C 1.472656 66.347656 0.125 63.09375 0.125 59.699219 L 0.125 13.144531 C 0.125 9.75 1.472656 6.496094 3.871094 4.097656 C 6.273438 1.695312 9.527344 0.347656 12.921875 0.347656 L 195.960938 0.347656 C 199.351562 0.347656 202.605469 1.695312 205.007812 4.097656 C 207.40625 6.496094 208.753906 9.75 208.753906 13.144531 Z M 208.753906 13.144531 " clip-rule="nonzero"/></clipPath><clipPath id="09dba7b4ac"><rect x="0" width="209" y="0" height="73"/></clipPath><clipPath id="379ad5ce0d"><rect x="0" width="168" y="0" height="152"/></clipPath></defs><g clip-path="url(#ad6bc0c176)"><g clip-path="url(#1c20a99064)"><g transform="matrix(1, 0, 0, 1, 8, 40)"><g clip-path="url(#09dba7b4ac)"><g clip-path="url(#7bc755a89e)"><g clip-path="url(#60a44086b7)"><path fill="#ffffff" d="M 0.125 0.347656 L 208.675781 0.347656 L 208.675781 72.496094 L 0.125 72.496094 Z M 0.125 0.347656 " fill-opacity="1" fill-rule="nonzero"/></g></g></g></g></g></g><g transform="matrix(1, 0, 0, 1, 28, 37)"><g clip-path="url(#379ad5ce0d)"><g fill="#004aad" fill-opacity="1"><g transform="translate(0.974256, 58.308666)"><g><path d="M 16.625 -36.515625 L 16.625 -29.390625 L 27.828125 -29.390625 L 27.828125 -25.515625 L 16.625 -25.515625 L 16.625 -9.53125 C 16.625 -8.394531 16.769531 -7.453125 17.0625 -6.703125 C 17.351562 -5.960938 17.75 -5.367188 18.25 -4.921875 C 18.757812 -4.484375 19.34375 -4.171875 20 -3.984375 C 20.664062 -3.804688 21.367188 -3.71875 22.109375 -3.71875 C 22.660156 -3.71875 23.222656 -3.75 23.796875 -3.8125 C 24.378906 -3.875 24.945312 -3.953125 25.5 -4.046875 C 26.050781 -4.140625 26.566406 -4.234375 27.046875 -4.328125 C 27.523438 -4.429688 27.921875 -4.519531 28.234375 -4.59375 L 28.9375 -1.03125 C 28.519531 -0.78125 28.007812 -0.554688 27.40625 -0.359375 C 26.8125 -0.171875 26.160156 -0.0078125 25.453125 0.125 C 24.742188 0.257812 23.992188 0.363281 23.203125 0.4375 C 22.421875 0.507812 21.640625 0.546875 20.859375 0.546875 C 19.554688 0.546875 18.335938 0.359375 17.203125 -0.015625 C 16.078125 -0.390625 15.097656 -0.976562 14.265625 -1.78125 C 13.429688 -2.582031 12.773438 -3.617188 12.296875 -4.890625 C 11.816406 -6.171875 11.578125 -7.71875 11.578125 -9.53125 L 11.578125 -25.515625 L 3.859375 -25.515625 L 3.859375 -29.390625 L 11.578125 -29.390625 L 11.578125 -36.515625 Z M 16.625 -36.515625 "/></g></g><g transform="translate(34.360443, 58.308666)"><g><path d="M 23.984375 -29.9375 C 24.460938 -29.9375 24.953125 -29.921875 25.453125 -29.890625 C 25.960938 -29.867188 26.445312 -29.828125 26.90625 -29.765625 C 27.375 -29.703125 27.800781 -29.625 28.1875 -29.53125 C 28.570312 -29.4375 28.894531 -29.335938 29.15625 -29.234375 L 28.46875 -24.3125 C 27.488281 -24.53125 26.5625 -24.6875 25.6875 -24.78125 C 24.8125 -24.882812 23.894531 -24.9375 22.9375 -24.9375 C 20.570312 -24.9375 18.660156 -24.398438 17.203125 -23.328125 C 15.753906 -22.265625 14.679688 -20.773438 13.984375 -18.859375 L 13.984375 0 L 8.9375 0 L 8.9375 -29.390625 L 13.71875 -29.390625 L 13.96875 -24.71875 C 15.15625 -26.332031 16.585938 -27.601562 18.265625 -28.53125 C 19.941406 -29.46875 21.847656 -29.9375 23.984375 -29.9375 Z M 23.984375 -29.9375 "/></g></g><g transform="translate(67.746631, 58.308666)"><g><path d="M 23.796875 -4.046875 C 22.816406 -2.597656 21.59375 -1.46875 20.125 -0.65625 C 18.664062 0.144531 16.972656 0.546875 15.046875 0.546875 C 13.503906 0.546875 12.109375 0.304688 10.859375 -0.171875 C 9.617188 -0.648438 8.550781 -1.394531 7.65625 -2.40625 C 6.769531 -3.425781 6.085938 -4.71875 5.609375 -6.28125 C 5.128906 -7.851562 4.890625 -9.734375 4.890625 -11.921875 L 4.890625 -29.390625 L 9.921875 -29.390625 L 9.921875 -11.875 C 9.921875 -10.28125 10.046875 -8.957031 10.296875 -7.90625 C 10.546875 -6.851562 10.925781 -6.015625 11.4375 -5.390625 C 11.945312 -4.765625 12.566406 -4.320312 13.296875 -4.0625 C 14.035156 -3.8125 14.882812 -3.6875 15.84375 -3.6875 C 17.882812 -3.6875 19.535156 -4.101562 20.796875 -4.9375 C 22.054688 -5.769531 22.992188 -6.894531 23.609375 -8.3125 L 23.609375 -29.390625 L 28.65625 -29.390625 L 28.65625 0 L 24.09375 0 Z M 23.796875 -4.046875 "/></g></g><g transform="translate(101.132819, 58.308666)"><g><path d="M 24.265625 -7.796875 C 24.265625 -8.390625 24.144531 -8.925781 23.90625 -9.40625 C 23.675781 -9.894531 23.28125 -10.335938 22.71875 -10.734375 C 22.15625 -11.128906 21.410156 -11.492188 20.484375 -11.828125 C 19.554688 -12.160156 18.40625 -12.460938 17.03125 -12.734375 C 15.351562 -13.085938 13.816406 -13.503906 12.421875 -13.984375 C 11.035156 -14.472656 9.847656 -15.054688 8.859375 -15.734375 C 7.878906 -16.421875 7.117188 -17.21875 6.578125 -18.125 C 6.035156 -19.039062 5.765625 -20.109375 5.765625 -21.328125 C 5.765625 -22.523438 6.039062 -23.644531 6.59375 -24.6875 C 7.15625 -25.726562 7.941406 -26.632812 8.953125 -27.40625 C 9.972656 -28.1875 11.1875 -28.800781 12.59375 -29.25 C 14 -29.707031 15.539062 -29.9375 17.21875 -29.9375 C 19.03125 -29.9375 20.660156 -29.703125 22.109375 -29.234375 C 23.554688 -28.765625 24.785156 -28.113281 25.796875 -27.28125 C 26.816406 -26.445312 27.601562 -25.472656 28.15625 -24.359375 C 28.707031 -23.242188 28.984375 -22.039062 28.984375 -20.75 L 23.96875 -20.75 C 23.96875 -21.382812 23.800781 -22.003906 23.46875 -22.609375 C 23.144531 -23.222656 22.691406 -23.765625 22.109375 -24.234375 C 21.535156 -24.703125 20.832031 -25.082031 20 -25.375 C 19.175781 -25.664062 18.25 -25.8125 17.21875 -25.8125 C 16.15625 -25.8125 15.21875 -25.691406 14.40625 -25.453125 C 13.601562 -25.222656 12.929688 -24.90625 12.390625 -24.5 C 11.859375 -24.101562 11.457031 -23.640625 11.1875 -23.109375 C 10.914062 -22.585938 10.78125 -22.046875 10.78125 -21.484375 C 10.78125 -20.910156 10.890625 -20.394531 11.109375 -19.9375 C 11.328125 -19.488281 11.703125 -19.082031 12.234375 -18.71875 C 12.773438 -18.351562 13.492188 -18.023438 14.390625 -17.734375 C 15.285156 -17.453125 16.421875 -17.175781 17.796875 -16.90625 C 19.609375 -16.519531 21.226562 -16.078125 22.65625 -15.578125 C 24.082031 -15.078125 25.285156 -14.476562 26.265625 -13.78125 C 27.242188 -13.082031 27.988281 -12.269531 28.5 -11.34375 C 29.019531 -10.425781 29.28125 -9.363281 29.28125 -8.15625 C 29.28125 -6.84375 28.984375 -5.648438 28.390625 -4.578125 C 27.804688 -3.515625 26.988281 -2.601562 25.9375 -1.84375 C 24.894531 -1.082031 23.640625 -0.492188 22.171875 -0.078125 C 20.703125 0.335938 19.097656 0.546875 17.359375 0.546875 C 15.367188 0.546875 13.59375 0.28125 12.03125 -0.25 C 10.476562 -0.789062 9.160156 -1.5 8.078125 -2.375 C 7.003906 -3.25 6.179688 -4.265625 5.609375 -5.421875 C 5.035156 -6.585938 4.75 -7.796875 4.75 -9.046875 L 9.78125 -9.046875 C 9.851562 -8.015625 10.128906 -7.144531 10.609375 -6.4375 C 11.085938 -5.726562 11.679688 -5.15625 12.390625 -4.71875 C 13.109375 -4.289062 13.898438 -3.984375 14.765625 -3.796875 C 15.640625 -3.617188 16.503906 -3.53125 17.359375 -3.53125 C 19.484375 -3.53125 21.160156 -3.921875 22.390625 -4.703125 C 23.617188 -5.484375 24.242188 -6.515625 24.265625 -7.796875 Z M 24.265625 -7.796875 "/></g></g><g transform="translate(134.519007, 58.308666)"><g><path d="M 16.625 -36.515625 L 16.625 -29.390625 L 27.828125 -29.390625 L 27.828125 -25.515625 L 16.625 -25.515625 L 16.625 -9.53125 C 16.625 -8.394531 16.769531 -7.453125 17.0625 -6.703125 C 17.351562 -5.960938 17.75 -5.367188 18.25 -4.921875 C 18.757812 -4.484375 19.34375 -4.171875 20 -3.984375 C 20.664062 -3.804688 21.367188 -3.71875 22.109375 -3.71875 C 22.660156 -3.71875 23.222656 -3.75 23.796875 -3.8125 C 24.378906 -3.875 24.945312 -3.953125 25.5 -4.046875 C 26.050781 -4.140625 26.566406 -4.234375 27.046875 -4.328125 C 27.523438 -4.429688 27.921875 -4.519531 28.234375 -4.59375 L 28.9375 -1.03125 C 28.519531 -0.78125 28.007812 -0.554688 27.40625 -0.359375 C 26.8125 -0.171875 26.160156 -0.0078125 25.453125 0.125 C 24.742188 0.257812 23.992188 0.363281 23.203125 0.4375 C 22.421875 0.507812 21.640625 0.546875 20.859375 0.546875 C 19.554688 0.546875 18.335938 0.359375 17.203125 -0.015625 C 16.078125 -0.390625 15.097656 -0.976562 14.265625 -1.78125 C 13.429688 -2.582031 12.773438 -3.617188 12.296875 -4.890625 C 11.816406 -6.171875 11.578125 -7.71875 11.578125 -9.53125 L 11.578125 -25.515625 L 3.859375 -25.515625 L 3.859375 -29.390625 L 11.578125 -29.390625 L 11.578125 -36.515625 Z M 16.625 -36.515625 "/></g></g></g><g fill="#ffffff" fill-opacity="1"><g transform="translate(0.974256, 136.169835)"><g><path d="M 29.53125 -14.375 C 29.53125 -12.269531 29.273438 -10.304688 28.765625 -8.484375 C 28.265625 -6.671875 27.523438 -5.09375 26.546875 -3.75 C 25.566406 -2.40625 24.351562 -1.351562 22.90625 -0.59375 C 21.46875 0.164062 19.828125 0.546875 17.984375 0.546875 C 16.191406 0.546875 14.609375 0.253906 13.234375 -0.328125 C 11.867188 -0.910156 10.695312 -1.742188 9.71875 -2.828125 L 9.71875 11.296875 L 4.703125 11.296875 L 4.703125 -29.390625 L 9.296875 -29.390625 L 9.53125 -26.1875 C 10.507812 -27.40625 11.691406 -28.332031 13.078125 -28.96875 C 14.460938 -29.613281 16.070312 -29.9375 17.90625 -29.9375 C 19.789062 -29.9375 21.457031 -29.566406 22.90625 -28.828125 C 24.351562 -28.085938 25.566406 -27.054688 26.546875 -25.734375 C 27.523438 -24.410156 28.265625 -22.828125 28.765625 -20.984375 C 29.273438 -19.148438 29.53125 -17.132812 29.53125 -14.9375 Z M 24.5 -14.9375 C 24.5 -16.375 24.34375 -17.738281 24.03125 -19.03125 C 23.71875 -20.320312 23.226562 -21.460938 22.5625 -22.453125 C 21.90625 -23.441406 21.066406 -24.222656 20.046875 -24.796875 C 19.035156 -25.378906 17.820312 -25.671875 16.40625 -25.671875 C 14.789062 -25.671875 13.4375 -25.296875 12.34375 -24.546875 C 11.25 -23.796875 10.375 -22.832031 9.71875 -21.65625 L 9.71875 -7.5 C 10.375 -6.34375 11.242188 -5.394531 12.328125 -4.65625 C 13.421875 -3.925781 14.800781 -3.5625 16.46875 -3.5625 C 17.863281 -3.5625 19.066406 -3.851562 20.078125 -4.4375 C 21.085938 -5.03125 21.921875 -5.820312 22.578125 -6.8125 C 23.234375 -7.8125 23.71875 -8.960938 24.03125 -10.265625 C 24.34375 -11.566406 24.5 -12.9375 24.5 -14.375 Z M 24.5 -14.9375 "/></g></g><g transform="translate(34.360443, 136.169835)"><g><path d="M 3.3125 -14.96875 C 3.3125 -17.082031 3.617188 -19.050781 4.234375 -20.875 C 4.847656 -22.695312 5.726562 -24.273438 6.875 -25.609375 C 8.03125 -26.953125 9.429688 -28.007812 11.078125 -28.78125 C 12.734375 -29.550781 14.59375 -29.9375 16.65625 -29.9375 C 18.738281 -29.9375 20.609375 -29.550781 22.265625 -28.78125 C 23.921875 -28.007812 25.320312 -26.953125 26.46875 -25.609375 C 27.625 -24.273438 28.507812 -22.695312 29.125 -20.875 C 29.738281 -19.050781 30.046875 -17.082031 30.046875 -14.96875 L 30.046875 -14.375 C 30.046875 -12.25 29.738281 -10.28125 29.125 -8.46875 C 28.507812 -6.664062 27.625 -5.09375 26.46875 -3.75 C 25.320312 -2.40625 23.925781 -1.351562 22.28125 -0.59375 C 20.632812 0.164062 18.773438 0.546875 16.703125 0.546875 C 14.617188 0.546875 12.75 0.164062 11.09375 -0.59375 C 9.4375 -1.351562 8.03125 -2.40625 6.875 -3.75 C 5.726562 -5.09375 4.847656 -6.664062 4.234375 -8.46875 C 3.617188 -10.28125 3.3125 -12.25 3.3125 -14.375 Z M 8.34375 -14.375 C 8.34375 -12.925781 8.515625 -11.546875 8.859375 -10.234375 C 9.203125 -8.921875 9.722656 -7.765625 10.421875 -6.765625 C 11.117188 -5.765625 11.988281 -4.972656 13.03125 -4.390625 C 14.082031 -3.816406 15.304688 -3.53125 16.703125 -3.53125 C 18.078125 -3.53125 19.285156 -3.816406 20.328125 -4.390625 C 21.367188 -4.972656 22.238281 -5.765625 22.9375 -6.765625 C 23.632812 -7.765625 24.15625 -8.921875 24.5 -10.234375 C 24.84375 -11.546875 25.015625 -12.925781 25.015625 -14.375 L 25.015625 -14.96875 C 25.015625 -16.394531 24.835938 -17.765625 24.484375 -19.078125 C 24.140625 -20.398438 23.617188 -21.554688 22.921875 -22.546875 C 22.222656 -23.546875 21.351562 -24.335938 20.3125 -24.921875 C 19.269531 -25.515625 18.050781 -25.8125 16.65625 -25.8125 C 15.257812 -25.8125 14.046875 -25.515625 13.015625 -24.921875 C 11.984375 -24.335938 11.117188 -23.546875 10.421875 -22.546875 C 9.722656 -21.554688 9.203125 -20.398438 8.859375 -19.078125 C 8.515625 -17.765625 8.34375 -16.394531 8.34375 -14.96875 Z M 8.34375 -14.375 "/></g></g><g transform="translate(67.746631, 136.169835)"><g><path d="M 5.515625 -29.390625 L 20.546875 -29.390625 L 20.546875 -4.34375 L 30.125 -4.34375 L 30.125 0 L 5.515625 0 L 5.515625 -4.34375 L 15.515625 -4.34375 L 15.515625 -25.015625 L 5.515625 -25.015625 Z M 14.859375 -37.109375 C 14.859375 -37.941406 15.109375 -38.644531 15.609375 -39.21875 C 16.109375 -39.789062 16.863281 -40.078125 17.875 -40.078125 C 18.875 -40.078125 19.625 -39.789062 20.125 -39.21875 C 20.632812 -38.644531 20.890625 -37.941406 20.890625 -37.109375 C 20.890625 -36.296875 20.632812 -35.617188 20.125 -35.078125 C 19.625 -34.535156 18.875 -34.265625 17.875 -34.265625 C 16.863281 -34.265625 16.109375 -34.535156 15.609375 -35.078125 C 15.109375 -35.617188 14.859375 -36.296875 14.859375 -37.109375 Z M 14.859375 -37.109375 "/></g></g><g transform="translate(101.132819, 136.169835)"><g><path d="M 9.234375 -29.390625 L 9.59375 -25.046875 C 10.65625 -26.566406 11.960938 -27.753906 13.515625 -28.609375 C 15.078125 -29.472656 16.820312 -29.914062 18.75 -29.9375 C 20.289062 -29.9375 21.6875 -29.71875 22.9375 -29.28125 C 24.195312 -28.851562 25.269531 -28.175781 26.15625 -27.25 C 27.050781 -26.320312 27.738281 -25.144531 28.21875 -23.71875 C 28.695312 -22.300781 28.9375 -20.617188 28.9375 -18.671875 L 28.9375 0 L 23.90625 0 L 23.90625 -18.5625 C 23.90625 -19.863281 23.757812 -20.96875 23.46875 -21.875 C 23.175781 -22.78125 22.742188 -23.507812 22.171875 -24.0625 C 21.609375 -24.625 20.914062 -25.03125 20.09375 -25.28125 C 19.269531 -25.539062 18.320312 -25.671875 17.25 -25.671875 C 15.5625 -25.671875 14.078125 -25.25 12.796875 -24.40625 C 11.523438 -23.5625 10.507812 -22.453125 9.75 -21.078125 L 9.75 0 L 4.734375 0 L 4.734375 -29.390625 Z M 9.234375 -29.390625 "/></g></g><g transform="translate(134.519007, 136.169835)"><g><path d="M 16.625 -36.515625 L 16.625 -29.390625 L 27.828125 -29.390625 L 27.828125 -25.515625 L 16.625 -25.515625 L 16.625 -9.53125 C 16.625 -8.394531 16.769531 -7.453125 17.0625 -6.703125 C 17.351562 -5.960938 17.75 -5.367188 18.25 -4.921875 C 18.757812 -4.484375 19.34375 -4.171875 20 -3.984375 C 20.664062 -3.804688 21.367188 -3.71875 22.109375 -3.71875 C 22.660156 -3.71875 23.222656 -3.75 23.796875 -3.8125 C 24.378906 -3.875 24.945312 -3.953125 25.5 -4.046875 C 26.050781 -4.140625 26.566406 -4.234375 27.046875 -4.328125 C 27.523438 -4.429688 27.921875 -4.519531 28.234375 -4.59375 L 28.9375 -1.03125 C 28.519531 -0.78125 28.007812 -0.554688 27.40625 -0.359375 C 26.8125 -0.171875 26.160156 -0.0078125 25.453125 0.125 C 24.742188 0.257812 23.992188 0.363281 23.203125 0.4375 C 22.421875 0.507812 21.640625 0.546875 20.859375 0.546875 C 19.554688 0.546875 18.335938 0.359375 17.203125 -0.015625 C 16.078125 -0.390625 15.097656 -0.976562 14.265625 -1.78125 C 13.429688 -2.582031 12.773438 -3.617188 12.296875 -4.890625 C 11.816406 -6.171875 11.578125 -7.71875 11.578125 -9.53125 L 11.578125 -25.515625 L 3.859375 -25.515625 L 3.859375 -29.390625 L 11.578125 -29.390625 L 11.578125 -36.515625 Z M 16.625 -36.515625 "/></g></g></g></g></g></svg>